HIERARCHY
ROOT Hips
{
	OFFSET 0.000000 0.000000 0.000000
	CHANNELS 6 Xposition Yposition Zposition Zrotation Yrotation Xrotation 
	JOINT LowerBack
	{
		OFFSET 0.000000 0.000000 0.000000
		CHANNELS 3 Zrotation Yrotation Xrotation
		JOINT Spine
		{
			OFFSET 0.028270 2.035590 -0.193380
			CHANNELS 3 Zrotation Yrotation Xrotation
			JOINT Spine1
			{
				OFFSET 0.056720 2.048850 -0.042750
				CHANNELS 3 Zrotation Yrotation Xrotation
				JOINT Neck
				{
					OFFSET 0.000000 0.000000 0.000000
					CHANNELS 3 Zrotation Yrotation Xrotation
					JOINT Neck1
					{
						OFFSET -0.054170 1.746240 0.172020
						CHANNELS 3 Zrotation Yrotation Xrotation
						JOINT Head
						{
							OFFSET 0.104070 1.761360 -0.123970
							CHANNELS 3 Zrotation Yrotation Xrotation
							End Site
							{
								OFFSET 0.000000 0.000000 0.000000
							}
						}
					}
				}
				JOINT LeftShoulder
				{
					OFFSET 0.000000 0.000000 0.000000
					CHANNELS 3 Zrotation Yrotation Xrotation
					JOINT LeftArm
					{
						OFFSET 3.362410 1.200890 -0.311210
						CHANNELS 3 Zrotation Yrotation Xrotation
						JOINT LeftForeArm
						{
							OFFSET 4.983000 -0.000000 -0.000000
							CHANNELS 3 Zrotation Yrotation Xrotation
							JOINT LeftHand
							{
								OFFSET 3.483560 -0.000000 -0.000000
								CHANNELS 3 Zrotation Yrotation Xrotation
								JOINT LeftFingerBase
								{
									OFFSET 0.000000 0.000000 0.000000
									CHANNELS 3 Zrotation Yrotation Xrotation
									JOINT LeftHandIndex1
									{
										OFFSET 0.715260 -0.000000 -0.000000
										CHANNELS 3 Zrotation Yrotation Xrotation
										End Site
										{
											OFFSET 0.000000 0.000000 0.000000
										}
									}
								}
								JOINT LThumb
								{
									OFFSET 0.000000 0.000000 0.000000
									CHANNELS 3 Zrotation Yrotation Xrotation
									End Site
									{
										OFFSET 0.000000 0.000000 0.000000
									}
								}
							}
						}
					}
				}
				JOINT RightShoulder
				{
					OFFSET 0.000000 0.000000 0.000000
					CHANNELS 3 Zrotation Yrotation Xrotation
					JOINT RightArm
					{
						OFFSET -3.136600 1.374050 -0.404650
						CHANNELS 3 Zrotation Yrotation Xrotation
						JOINT RightForeArm
						{
							OFFSET -5.241900 -0.000000 -0.000000
							CHANNELS 3 Zrotation Yrotation Xrotation
							JOINT RightHand
							{
								OFFSET -3.444170 -0.000000 -0.000000
								CHANNELS 3 Zrotation Yrotation Xrotation
								JOINT RightFingerBase
								{
									OFFSET 0.000000 0.000000 0.000000
									CHANNELS 3 Zrotation Yrotation Xrotation
									JOINT RightHandIndex1
									{
										OFFSET -0.622530 -0.000000 -0.000000
										CHANNELS 3 Zrotation Yrotation Xrotation
										End Site
										{
											OFFSET 0.000000 0.000000 0.000000
										}
									}
								}
								JOINT RThumb
								{
									OFFSET 0.000000 0.000000 0.000000
									CHANNELS 3 Zrotation Yrotation Xrotation
									End Site
									{
										OFFSET 0.000000 0.000000 0.000000
									}
								}
							}
						}
					}
				}
			}
		}
	}
}
}
MOTION
Frames: 18
Frame Time: 0.008333
-9.748154 17.205463 0.687773 66.739780 85.124167 90.848017 4.101159 -2.516258 -7.001906 0.386780 -3.026583 -3.810818 -6.228612 -2.921530 1.785191 4.065242 -14.491156 -8.145993 -4.040147 -0.308200 -0.136072 0.000000 0.000000 0.000000 11.208542 9.689987 -0.892071 -59.195770 -13.180690 31.182454 -178.639830 -66.514226 179.991593 1.202393 1.822672 0.017534 -0.094819 0.450949 0.000000 0.000000 0.000000 0.000000 0.000000 0.000000 0.000000 10.280583 -10.829922 -0.542908 76.372837 0.461714 14.571347 0.832269 71.834445 0.013547 2.441262 3.523652 0.081690 0.003146 -0.253647 -0.000000 0.000000 0.000000 0.000000 0.000000 0.000000 0.000000 
-9.544303 17.137367 0.718393 63.773325 84.881873 87.775520 4.074765 -2.480160 -6.988501 0.358504 -2.993633 -3.808823 -6.309014 -2.886610 1.762004 3.761649 -14.296304 -8.216410 -4.162643 -0.316425 -0.165229 0.000000 0.000000 0.000000 10.774282 9.740941 -0.815975 -58.518451 -13.580942 30.627935 -178.591570 -66.582645 179.990054 1.429151 1.399077 0.014717 -0.108443 0.470356 0.000000 0.000000 0.000000 0.000000 0.000000 0.000000 0.000000 10.612151 -10.590682 -0.472581 76.001307 0.654270 14.479273 0.891444 70.717814 0.012288 2.087605 3.510440 0.069501 0.010145 -0.249551 -0.000000 0.000000 0.000000 0.000000 0.000000 0.000000 0.000000 
-9.345572 17.075427 0.745882 62.220870 84.700865 86.050841 4.047041 -2.472441 -6.883549 0.334906 -2.985503 -3.793135 -6.369887 -2.878800 1.721175 3.475534 -14.071895 -8.264312 -4.281134 -0.324272 -0.190270 0.000000 0.000000 0.000000 10.381667 9.737027 -0.744092 -58.133017 -13.886087 30.122964 -178.569024 -66.916388 179.987747 1.750594 1.015170 0.011029 -0.124379 0.487955 0.000000 0.000000 0.000000 0.000000 0.000000 0.000000 0.000000 10.937334 -10.344445 -0.396430 75.623853 0.944696 14.380068 0.952436 69.482229 0.010699 1.630177 3.515949 0.054207 0.018264 -0.245537 -0.000000 0.000000 0.000000 0.000000 0.000000 0.000000 0.000000 
-9.151854 17.021633 0.769533 61.912302 84.606934 85.517661 4.034684 -2.491123 -6.697684 0.320112 -3.001652 -3.766227 -6.408575 -2.897729 1.663990 3.207628 -13.822757 -8.287647 -4.393840 -0.331617 -0.210422 0.000000 0.000000 0.000000 10.030863 9.675906 -0.677303 -58.067449 -14.084745 29.695203 -178.574978 -67.527316 179.984558 2.171229 0.703240 0.006769 -0.142517 0.502234 0.000000 0.000000 0.000000 0.000000 0.000000 0.000000 0.000000 11.247361 -10.097769 -0.315302 75.242775 1.332163 14.274552 1.014226 68.139271 0.008844 1.082857 3.534858 0.036106 0.027284 -0.241529 -0.000000 0.000000 0.000000 0.000000 0.000000 0.000000 0.000000 
-8.962807 16.977520 0.789053 62.770928 84.610078 86.119393 4.048684 -2.532765 -6.449830 0.316076 -3.040021 -3.732058 -6.426028 -2.941274 1.591889 2.959230 -13.548436 -8.283545 -4.499450 -0.338408 -0.224532 0.000000 0.000000 0.000000 9.714525 9.560469 -0.615018 -58.319557 -14.179743 29.364283 -178.610414 -68.421402 179.980433 2.690272 0.488784 0.002329 -0.162546 0.511991 0.000000 0.000000 0.000000 0.000000 0.000000 0.000000 0.000000 11.536739 -9.850377 -0.231351 74.863094 1.799658 14.155059 1.075279 66.715592 0.006823 0.471732 3.559024 0.015697 0.036793 -0.237470 -0.000000 0.000000 0.000000 0.000000 0.000000 0.000000 0.000000 
-8.777850 16.943974 0.804562 64.839896 84.706911 87.921246 4.093692 -2.593650 -6.163418 0.322985 -3.098033 -3.694784 -6.425289 -3.006579 1.508019 2.732249 -13.256017 -8.251490 -4.596266 -0.344569 -0.231920 0.000000 0.000000 0.000000 9.421322 9.394532 -0.557040 -58.860819 -14.180918 29.137224 -178.675197 -69.592893 179.975397 3.300404 0.388544 -0.000708 -0.183793 0.516462 0.000000 0.000000 0.000000 0.000000 0.000000 0.000000 0.000000 11.801278 -9.609097 -0.147271 74.491772 2.329851 14.024214 1.134286 65.243503 0.004736 -0.176160 3.581365 -0.006120 0.046431 -0.233344 -0.000000 0.000000 0.000000 0.000000 0.000000 0.000000 0.000000 
-8.596373 16.921239 0.816703 68.288875 84.878685 91.111384 4.165320 -2.670425 -5.860198 0.338696 -3.172810 -3.657726 -6.411452 -3.090299 1.416080 2.529160 -12.951911 -8.191463 -4.682657 -0.350040 -0.231972 0.000000 0.000000 0.000000 9.140546 9.184827 -0.502717 -59.639718 -14.106784 29.010754 -178.767512 -71.027750 179.969560 3.988894 0.409945 -0.000454 -0.205405 0.515365 0.000000 0.000000 0.000000 0.000000 0.000000 0.000000 0.000000 12.038887 -9.379324 -0.066644 74.138571 2.898832 13.885329 1.189807 63.763476 0.002684 -0.830518 3.595459 -0.028347 0.055804 -0.229173 -0.000000 0.000000 0.000000 0.000000 0.000000 0.000000 0.000000 
-8.417761 16.908916 0.826518 73.354711 85.093818 95.939670 4.256045 -2.759509 -5.558526 0.360263 -3.261012 -3.623127 -6.390446 -3.188499 1.320342 2.352131 -12.643852 -8.105046 -4.756939 -0.354749 -0.224492 0.000000 0.000000 0.000000 8.862321 8.940083 -0.451096 -60.590984 -13.980202 28.973743 -178.883669 -72.703147 179.963124 4.736819 0.550509 0.005470 -0.226422 0.508908 0.000000 0.000000 0.000000 0.000000 0.000000 0.000000 0.000000 12.247534 -9.166483 0.006643 73.816002 3.481252 13.744845 1.240502 62.319042 0.000755 -1.462003 3.597736 -0.049681 0.064553 -0.225023 -0.000000 0.000000 0.000000 0.000000 0.000000 0.000000 0.000000 
-8.241411 16.906168 0.835150 80.196727 85.313276 102.574758 4.361629 -2.855122 -5.272527 0.385267 -3.357356 -3.592208 -6.368573 -3.295232 1.225529 2.202694 -12.339922 -7.995959 -4.817462 -0.358608 -0.209922 0.000000 0.000000 0.000000 8.577079 8.672505 -0.400548 -61.641738 -13.823204 29.010853 -179.018494 -74.592967 179.956391 5.519142 0.798221 0.018951 -0.245900 0.497663 -0.000000 0.000000 0.000000 0.000000 0.000000 0.000000 0.000000 12.424994 -8.973807 0.068937 73.535726 4.053505 13.613473 1.285342 60.953445 -0.000980 -2.044198 3.587998 -0.069218 0.072398 -0.220993 -0.000000 0.000000 0.000000 0.000000 0.000000 0.000000 0.000000 
-8.066721 16.911882 0.843734 88.638781 85.497587 110.847294 4.482151 -2.946607 -5.012248 0.412179 -3.451907 -3.565457 -6.351162 -3.399933 1.136337 2.080614 -12.047378 -7.869998 -4.862933 -0.361529 -0.189375 0.000000 0.000000 0.000000 8.277717 8.398708 -0.349757 -62.724744 -13.653826 29.105048 -179.165620 -76.660576 179.949741 6.304649 1.132879 0.041278 -0.262963 0.482515 -0.000000 0.000000 0.000000 0.000000 0.000000 0.000000 0.000000 12.567661 -8.799896 0.117533 73.307294 4.597508 13.506482 1.323818 59.705041 -0.002464 -2.556471 3.569019 -0.085957 0.079174 -0.217204 -0.000000 0.000000 0.000000 0.000000 0.000000 0.000000 0.000000 
-7.893149 16.924833 0.853227 97.924635 85.619627 120.007580 4.612250 -3.017570 -4.783680 0.438351 -3.528304 -3.542889 -6.341817 -3.485789 1.056652 1.984306 -11.772060 -7.734877 -4.892328 -0.363416 -0.164630 0.000000 0.000000 0.000000 7.959266 8.138819 -0.297849 -63.781900 -13.481608 29.238782 -179.318795 -78.864449 179.943599 7.058674 1.526714 0.072143 -0.276874 0.464493 -0.000000 0.000000 0.000000 0.000000 0.000000 0.000000 0.000000 12.670951 -8.637508 0.151443 73.136964 5.101508 13.441557 1.356125 58.604258 -0.003660 -2.983975 3.546248 -0.099696 0.084829 -0.213804 -0.000000 0.000000 0.000000 0.000000 0.000000 0.000000 0.000000 
-7.720244 16.943847 0.864237 106.838475 85.676136 128.845119 4.727386 -3.051365 -4.589711 0.457666 -3.568058 -3.524503 -6.341242 -3.534204 0.988321 1.910687 -11.514218 -7.597639 -4.905158 -0.364209 -0.137423 0.000000 0.000000 0.000000 7.619750 7.912112 -0.244199 -64.767188 -13.304730 29.393074 -179.472538 -81.159498 179.938381 7.746046 1.946581 0.109446 -0.287085 0.444661 -0.000000 0.000000 0.000000 0.000000 0.000000 0.000000 0.000000 12.729785 -8.472372 0.171122 73.027951 5.556709 13.433063 1.382791 57.672990 -0.004555 -3.316522 3.526221 -0.110031 0.089353 -0.210954 -0.000000 0.000000 0.000000 0.000000 0.000000 0.000000 0.000000 
-7.547644 16.967840 0.877057 114.254912 85.683802 136.238187 4.784398 -3.040708 -4.431421 0.461457 -3.560313 -3.509406 -6.346489 -3.534372 0.935158 1.856334 -11.282896 -7.468117 -4.900905 -0.363818 -0.110389 0.000000 0.000000 0.000000 7.258892 7.737324 -0.189055 -65.648976 -13.122096 29.551928 -179.622190 -83.498525 179.934422 8.335812 2.358663 0.149895 -0.293416 0.424025 -0.000000 0.000000 0.000000 0.000000 0.000000 0.000000 0.000000 12.740582 -8.304285 0.177461 72.977594 5.975017 13.511549 1.404827 56.914769 -0.005151 -3.556480 3.518337 -0.117760 0.092874 -0.208758 -0.000000 0.000000 0.000000 0.000000 0.000000 0.000000 0.000000 
-7.375121 16.995938 0.891643 119.618671 85.667293 141.632158 4.747893 -2.989631 -4.309377 0.443485 -3.506107 -3.497840 -6.353371 -3.487576 0.896505 1.816300 -11.073284 -7.349770 -4.880398 -0.362309 -0.084526 0.000000 0.000000 0.000000 6.879385 7.619474 -0.131237 -66.409168 -12.922050 29.697318 -179.764433 -85.835112 179.931923 8.805387 2.729510 0.188903 -0.296012 0.403563 -0.000000 0.000000 0.000000 0.000000 0.000000 0.000000 0.000000 12.699844 -8.125650 0.171808 72.980848 6.358399 13.686857 1.422417 56.330948 -0.005463 -3.703480 3.528448 -0.122882 0.095363 -0.207261 -0.000000 0.000000 0.000000 0.000000 0.000000 0.000000 0.000000 
-7.202646 17.027530 0.907648 122.902447 85.648581 144.997523 4.605148 -2.907558 -4.222597 0.402478 -3.413673 -3.489612 -6.357563 -3.402141 0.872654 1.786448 -10.886458 -7.247210 -4.844532 -0.359727 -0.061230 0.000000 0.000000 0.000000 6.483356 7.561821 -0.070084 -67.040666 -12.696327 29.812961 -179.897450 -88.127183 179.930920 9.143493 3.031973 0.222285 -0.295318 0.384056 -0.000000 0.000000 0.000000 0.000000 0.000000 0.000000 0.000000 12.606008 -7.939766 0.155811 73.027070 6.722999 13.977507 1.436080 55.908898 -0.005512 -3.765245 3.562290 -0.126097 0.096895 -0.206428 -0.000000 0.000000 0.000000 0.000000 0.000000 0.000000 0.000000 
-7.030258 17.062164 0.924475 124.369757 85.646418 146.593387 4.367022 -2.803110 -4.167452 0.341573 -3.292220 -3.485443 -6.356069 -3.287423 0.858831 1.762008 -10.709951 -7.158780 -4.795240 -0.356231 -0.040231 0.000000 0.000000 0.000000 6.075283 7.556228 -0.004704 -67.546899 -12.424413 29.877336 -0.020696 -89.665707 -0.068697 9.351179 3.246025 0.246453 -0.291860 0.366097 -0.000000 0.000000 0.000000 0.000000 0.000000 0.000000 0.000000 12.457292 -7.737532 0.132247 73.105139 7.072392 14.378239 1.445974 55.638147 -0.005309 -3.743217 3.619620 -0.127310 0.097426 -0.206201 -0.000000 0.000000 0.000000 0.000000 0.000000 0.000000 0.000000 
-6.858110 17.099608 0.941432 124.344979 85.673652 146.737369 4.055078 -2.682815 -4.137373 0.265822 -3.149592 -3.484927 -6.346868 -3.151279 0.852210 1.740422 -10.539282 -7.085289 -4.734135 -0.351912 -0.021971 0.000000 0.000000 0.000000 5.657351 7.598853 0.064771 -67.935591 -12.094967 29.873687 -0.134297 -87.576617 -0.067160 9.441961 3.362366 0.259818 -0.286314 0.349995 -0.000000 0.000000 0.000000 0.000000 0.000000 0.000000 0.000000 12.255268 -7.518475 0.104110 73.200383 7.422709 14.891473 1.452816 55.498939 -0.004877 -3.644423 3.698541 -0.126617 0.097031 -0.206477 -0.000000 0.000000 0.000000 0.000000 0.000000 0.000000 0.000000 
-6.686432 17.139694 0.957824 123.137960 85.735877 145.730190 3.693751 -2.551984 -4.123092 0.180711 -2.992544 -3.486237 -6.328837 -3.000329 0.852947 1.721308 -10.379728 -7.030497 -4.662551 -0.346802 -0.007738 0.000000 0.000000 0.000000 5.229436 7.692573 0.137274 -68.216339 -11.710123 29.794519 -0.238750 -85.629011 -0.064781 9.440746 3.381475 0.262288 -0.279482 0.335821 -0.000000 0.000000 0.000000 0.000000 0.000000 0.000000 0.000000 12.005732 -7.292528 0.073985 73.295620 7.802068 15.529310 1.457678 55.465315 -0.004249 -3.481869 3.796098 -0.124121 0.095904 -0.207113 -0.000000 0.000000 0.000000 0.000000 0.000000 0.000000 0.000000 
